<svg xmlns="http://www.w3.org/2000/svg" viewBox="0 0 150 150"><defs><style>.cls-1{fill:#e4632c;}</style></defs><g id="Objects"><path class="cls-1" d="M62.38,93.59a11.26,11.26,0,0,0,7.52-5.27,12,12,0,0,0,1.82-6.53,10.81,10.81,0,0,0-1.59-6,9.14,9.14,0,0,0-4.73-3.61,9.84,9.84,0,0,0,3.12-2.33,9.15,9.15,0,0,0,1.9-6,10.41,10.41,0,0,0-1.88-6.24q-3.12-4.25-10.6-4.36H38.16V94.15H56.6A28.41,28.41,0,0,0,62.38,93.59ZM46.32,60.34h8.9a15.33,15.33,0,0,1,4.84.64,3.66,3.66,0,0,1,2.2,3.77,3.88,3.88,0,0,1-1.67,3.6,8.26,8.26,0,0,1-4.33,1H46.32Zm0,26.7V76.13H56.39a10.24,10.24,0,0,1,4.09.7,4.38,4.38,0,0,1,2.61,4.38q0,3.78-2.69,5.11a9.68,9.68,0,0,1-4.14.72Z"/><path class="cls-1" d="M78.65,91.45a16.5,16.5,0,0,0,10.66,3.72q7.32,0,11.38-4.41a9.89,9.89,0,0,0,2.93-5.47H95.55a6.16,6.16,0,0,1-6,3.47,8,8,0,0,1-4.36-1.14c-2-1.22-3-3.35-3.16-6.38h22a37.72,37.72,0,0,0-.26-6A14.71,14.71,0,0,0,101.36,69a12.26,12.26,0,0,0-5.23-4.48A17.26,17.26,0,0,0,89,63.09,14.58,14.58,0,0,0,78.2,67.28C75.42,70.08,74,74.09,74,79.34Q74,87.73,78.65,91.45ZM84.3,71.34A6.28,6.28,0,0,1,89,69.61a6.93,6.93,0,0,1,4.7,1.63A6.59,6.59,0,0,1,95.82,76H82.19A8.21,8.21,0,0,1,84.3,71.34Z"/><rect class="cls-1" x="79.61" y="55.58" width="17.78" height="4.13"/><path class="cls-1" d="M71.4,10.87A63.44,63.44,0,1,0,134.84,74.3,63.5,63.5,0,0,0,71.4,10.87Zm0,118.74A55.31,55.31,0,1,1,126.7,74.3,55.37,55.37,0,0,1,71.4,129.61Z"/></g></svg>