<svg xmlns="http://www.w3.org/2000/svg" viewBox="0 0 150 150"><defs><style>.cls-1{fill:#e4632c;}</style></defs><g id="Objects"><path class="cls-1" d="M58.49,131s2.89-.18,2.71-2.34-.18-11-.18-11-7.76,2.53-13.71-.72-7.94-9.74-7.94-9.74-2.89-5.78-5-6S30.16,98,32.51,97.05s5.42-.9,9.75,4.15,4.46,6.18,6.8,7.29c2.13,1,5.28,1.73,7.63,1s4.51-1.26,4.51-1.26S62.64,101,65,100.48c0,0-17.14-.9-23.46-13A38.88,38.88,0,0,1,37.72,65.4a14.78,14.78,0,0,1,1.13-4.24c1.09-2.55,3.2-6.95,4.85-7.58-3.43-4.15.36-16.42.36-16.42s8.12-1.26,16.78,6.31c12.63-6.13,30.85.18,30.85.18s10.31-8.38,16.63-6.58c4,4.15,1.05,16.33,1.05,16.33s11.91,12.8,2,35.36C103.23,99.58,87.9,99.58,87.9,99.58s3.43,4.69,3.25,7.94c.54,3.07.36,17,.36,17s-.54,4.33.18,5.41,3.25,1.44,3.25,1.44S69.86,134.22,58.49,131Z"/><path class="cls-1" d="M73.38,10.37A63.62,63.62,0,1,0,137,74,63.69,63.69,0,0,0,73.38,10.37Zm0,119.08A55.46,55.46,0,1,1,128.84,74,55.52,55.52,0,0,1,73.38,129.45Z"/></g></svg>