<svg xmlns="http://www.w3.org/2000/svg" viewBox="0 0 150 150"><defs><style>.cls-1{fill:#e4632c;}</style></defs><g id="Objects"><path class="cls-1" d="M73.64,11.7a63.62,63.62,0,1,0,63.63,63.62A63.69,63.69,0,0,0,73.64,11.7Zm0,119.08a55.46,55.46,0,1,1,55.47-55.46A55.52,55.52,0,0,1,73.64,130.78Z"/><path class="cls-1" d="M108.83,55.21h0a8.23,8.23,0,0,0-4.42-1.29H42.86a8.23,8.23,0,0,0-4.34,1.24L72.81,70.77l36-15.6Z"/><path class="cls-1" d="M111.73,58.32,72.86,75.19l-.09,0h0L35.62,58.23a8.24,8.24,0,0,0-1,4V91.24a8.27,8.27,0,0,0,8.27,8.26h61.57a8.26,8.26,0,0,0,8.26-8.26V62.18A8.2,8.2,0,0,0,111.73,58.32Z"/><path class="cls-1" d="M108.83,55.21l-.07,0L72.81,70.77l.08,0Z"/><path class="cls-1" d="M72.77,75.15l-37.1-16.9.26-.56a5.79,5.79,0,0,0-.31.54L72.77,75.15Z"/></g></svg>