<svg xmlns="http://www.w3.org/2000/svg" viewBox="0 0 150 150"><defs><style>.cls-1{fill:#e4632c;}</style></defs><g id="Objects"><path class="cls-1" d="M98.22,56.31a3.81,3.81,0,1,1-3.81-3.82A3.81,3.81,0,0,1,98.22,56.31ZM93.48,73.39a16,16,0,1,1-16-16A16,16,0,0,1,93.48,73.39Zm-5.76,0A10.26,10.26,0,1,0,77.47,83.65,10.26,10.26,0,0,0,87.72,73.39Zm22.15-12.86A19.53,19.53,0,0,0,90.34,41H63.7A19.53,19.53,0,0,0,44.17,60.53V87.18A19.52,19.52,0,0,0,63.7,106.7H90.34a19.52,19.52,0,0,0,19.53-19.52Zm-6.41,26.35a13.41,13.41,0,0,1-13.41,13.41H64A13.41,13.41,0,0,1,50.58,86.88V60.82A13.41,13.41,0,0,1,64,47.41H90.05a13.41,13.41,0,0,1,13.41,13.41Z"/><path class="cls-1" d="M77,10.23a63.63,63.63,0,1,0,63.62,63.62A63.69,63.69,0,0,0,77,10.23Zm0,119.09a55.47,55.47,0,1,1,55.46-55.47A55.53,55.53,0,0,1,77,129.32Z"/></g></svg>