<svg xmlns="http://www.w3.org/2000/svg" viewBox="0 0 150 150"><defs><style>.cls-1{fill:#e4632c;}</style></defs><g id="Objects"><path class="cls-1" d="M42.85,58.8H55V97.9H42.85Zm6.09-19.43a7.05,7.05,0,1,1-7,7.05,7.05,7.05,0,0,1,7-7.05M62.65,97.9H74.79V78.56c0-5.1,1-10,7.29-10s6.32,5.83,6.32,10.37v19h12.14V76.45c0-10.52-2.27-18.62-14.57-18.62-5.92,0-9.88,3.24-11.51,6.32h-.15V58.8H62.65Z"/><path class="cls-1" d="M71.21,11.5a63.63,63.63,0,1,0,63.63,63.62A63.69,63.69,0,0,0,71.21,11.5Zm0,119.09a55.47,55.47,0,1,1,55.47-55.47A55.53,55.53,0,0,1,71.21,130.59Z"/></g></svg>